<svg width="114" height="114" viewBox="0 0 114 114" fill="none" xmlns="http://www.w3.org/2000/svg">
<circle cx="57" cy="57" r="39" stroke="#2F2E2E" stroke-width="2"/>
<g clip-path="url(#clip0)">
<path d="M37.4731 58.6202C34.9729 58.6202 32.9456 60.647 32.9456 63.1478C32.9456 63.3406 32.9613 63.5304 32.9856 63.7165C33.2663 65.9481 35.1657 67.6742 37.4725 67.6742C39.8418 67.6742 41.7843 65.853 41.9813 63.5334C41.9916 63.4067 42.0001 63.2776 42.0001 63.1472C42.0007 60.647 39.974 58.6202 37.4731 58.6202ZM35.2069 61.4418L36.1296 62.3651C36.0581 62.4882 36.0017 62.621 35.9654 62.7628H34.6643C34.731 62.2705 34.9195 61.8207 35.2069 61.4418ZM34.6582 63.5467H35.9696C36.0066 63.6862 36.0611 63.8183 36.1339 63.9396L35.2087 64.8641C34.922 64.4883 34.7292 64.0384 34.6582 63.5467ZM37.0815 65.9603C36.591 65.8918 36.1454 65.6996 35.7683 65.4152L36.6886 64.4943C36.8099 64.5653 36.9426 64.6174 37.0815 64.6538V65.9603ZM37.0815 61.6419C36.939 61.6794 36.8056 61.7352 36.6813 61.8086L35.7592 60.8865C36.1381 60.5985 36.588 60.4081 37.0815 60.3396V61.6419ZM37.8654 60.3384C38.3589 60.4069 38.8093 60.5985 39.1876 60.8858L38.2661 61.808C38.1424 61.7346 38.0079 61.6788 37.866 61.6412L37.8654 60.3384ZM37.8654 65.9591V64.6544C38.0048 64.6174 38.1364 64.5659 38.2576 64.4943L39.1785 65.4152C38.8014 65.6996 38.3552 65.8905 37.8654 65.9591ZM39.7399 64.8684L38.8118 63.939C38.8845 63.8171 38.9433 63.6868 38.9803 63.5473H40.2813C40.2122 64.0372 40.0273 64.4907 39.7399 64.8684ZM38.9821 62.7628C38.9451 62.621 38.8894 62.4882 38.8178 62.3651L39.7418 61.4418C40.0273 61.8207 40.2159 62.2705 40.2838 62.7634H38.9821V62.7628Z" fill="#2F2E2E"/>
<path d="M75.0671 58.6202C72.5669 58.6202 70.5396 60.647 70.5396 63.1478C70.5396 63.3406 70.5553 63.5304 70.5796 63.7165C70.8603 65.9481 72.7597 67.6742 75.0659 67.6742C77.4352 67.6742 79.3776 65.853 79.5753 63.5334C79.5856 63.4067 79.5941 63.2776 79.5941 63.1472C79.5953 60.647 77.568 58.6202 75.0671 58.6202ZM72.8009 61.4418L73.723 62.3651C73.6515 62.4882 73.5951 62.621 73.5587 62.7628H72.2577C72.325 62.2705 72.5135 61.8207 72.8009 61.4418ZM72.2528 63.5467H73.5642C73.6012 63.6862 73.6557 63.8183 73.7285 63.9396L72.8039 64.8641C72.516 64.4883 72.3226 64.0384 72.2528 63.5467ZM74.6755 65.9603C74.185 65.8918 73.7394 65.6996 73.3623 65.4152L74.2826 64.4943C74.4039 64.5653 74.5366 64.6174 74.6755 64.6538V65.9603ZM74.6755 61.6419C74.533 61.6794 74.3996 61.7352 74.2753 61.8086L73.3532 60.8865C73.7321 60.5985 74.1814 60.4081 74.6755 60.3396V61.6419ZM75.46 60.3384C75.9535 60.4069 76.4039 60.5985 76.7822 60.8858L75.8601 61.808C75.7364 61.7346 75.6018 61.6776 75.46 61.6412V60.3384ZM75.46 65.9591V64.6544C75.5994 64.6174 75.731 64.5659 75.8522 64.4943L76.7731 65.4152C76.396 65.6996 75.9492 65.8905 75.46 65.9591ZM77.3339 64.8684L76.4057 63.9402C76.4785 63.8177 76.5379 63.688 76.5743 63.5479H77.8753C77.8062 64.0372 77.6219 64.4907 77.3339 64.8684ZM76.5761 62.7628C76.5391 62.621 76.484 62.4882 76.4118 62.3651L77.3351 61.4418C77.6213 61.8207 77.8092 62.2705 77.8778 62.7634H76.5761V62.7628Z" fill="#2F2E2E"/>
<path d="M31.9842 63.8439C31.9933 63.9155 32.0057 63.9863 32.0186 64.0555C31.1449 63.9524 30.3322 63.8257 29.6359 63.6702C28.9155 63.5093 28.3264 63.3191 27.9234 63.0963C27.5323 62.4507 27.3079 61.6651 27.1947 60.9866C27.1376 60.6442 27.1092 60.3311 27.1016 60.08C27.0939 59.8252 27.1081 59.6438 27.131 59.5594C27.1417 59.5196 27.1532 59.4762 27.1658 59.4288C27.2792 59.0013 27.4798 58.2455 28.0054 56.8345C28.0342 56.7572 28.0989 56.6689 28.206 56.5711C28.3123 56.4741 28.4548 56.3729 28.6308 56.2683C28.9829 56.0593 29.4591 55.8431 30.0223 55.6258C31.148 55.1915 32.6084 54.7579 34.088 54.3719C35.567 53.9861 37.0626 53.6485 38.2577 53.4059C38.8552 53.2846 39.3771 53.1871 39.7839 53.1193C40.1934 53.051 40.4797 53.0139 40.6102 53.011L40.6293 53.0106L40.647 53.0032C42.433 52.2482 44.8102 51.1638 46.9695 50.1789C47.0932 50.1225 47.2161 50.0664 47.3382 50.0107C49.5959 48.9811 51.5505 48.0937 52.258 47.8487L52.258 47.8487C60.1856 45.1007 68.4469 47.07 70.9944 47.6772C71.1458 47.7133 71.2771 47.7446 71.3868 47.7698C72.354 47.9918 74.2429 48.6971 76.081 49.407C76.516 49.575 76.948 49.7432 77.3638 49.9051C78.6987 50.4249 79.8663 50.8795 80.4258 51.052L80.4553 50.9565L80.4258 51.052C81.4516 51.3681 83.7242 51.7468 84.9989 51.9465L84.9989 51.9465C85.4827 52.022 85.8383 52.4366 85.8383 52.9262V56.2764V56.3274L32.0834 63.8311M31.9842 63.8439C31.9842 63.8438 31.9842 63.8437 31.9842 63.8437L32.0834 63.8311M31.9842 63.8439C31.9842 63.8439 31.9842 63.844 31.9842 63.8441L32.0834 63.8311M31.9842 63.8439C31.9516 63.5952 31.9361 63.3672 31.9361 63.149C31.9361 60.0958 34.4192 57.6114 37.4731 57.6114C40.5269 57.6114 43.01 60.0952 43.01 63.149C43.01 63.3071 42.9994 63.4632 42.9879 63.6138L42.9878 63.6146C42.9627 63.9117 42.913 64.2012 42.8419 64.4817M32.0834 63.8311C32.0512 63.5861 32.0361 63.3624 32.0361 63.149C32.0361 60.151 34.4745 57.7114 37.4731 57.7114C40.4716 57.7114 42.91 60.1504 42.91 63.149C42.91 63.303 42.8997 63.4558 42.8882 63.6061C42.8627 63.907 42.8115 64.2001 42.7381 64.4838L42.8419 64.4817M42.8419 64.4817C42.8334 64.5153 42.8245 64.5488 42.8154 64.5822L69.6129 64.0429C69.6099 64.0266 69.6066 64.0094 69.6032 63.9917C69.6002 63.9759 69.5971 63.9597 69.594 63.9432L69.6954 63.9412M85.232 62.3027L85.2135 62.2044L85.1973 62.2074L85.1885 62.2125L85.1855 62.2141L85.1849 62.2144L85.232 62.3027Z" fill="#1DA0BC" stroke="#2F2E2E" stroke-width="0.2"/>
</g>
<path d="M85.9912 29.4228L29.4227 85.9914" stroke="black"/>
<path d="M85.2842 85.2843L28.7156 28.7157" stroke="black"/>
<defs>
<clipPath id="clip0">
<rect width="60" height="60" fill="white" transform="translate(27 27)"/>
</clipPath>
</defs>
</svg>
