<svg width="9" height="13" viewBox="0 0 9 13" fill="none" xmlns="http://www.w3.org/2000/svg">
<path d="M8.5 4.54301C8.5 5.04514 8.23844 5.82121 7.78099 6.75999C7.33449 7.6763 6.73945 8.67346 6.1519 9.59063C5.56541 10.5061 4.99287 11.332 4.59332 11.9069L4.56791 11.9435C4.50111 11.8392 4.42836 11.7286 4.35133 11.6132C4.17585 11.3505 3.96988 11.0507 3.74813 10.7281C3.71011 10.6728 3.67162 10.6168 3.63275 10.5602C3.3661 10.1719 3.0791 9.75233 2.78998 9.31621C2.21026 8.44171 1.62979 7.5123 1.1956 6.65306C0.751473 5.77416 0.5 5.0431 0.5 4.54301C0.5 2.30562 2.29533 0.5 4.5 0.5C6.70467 0.5 8.5 2.30562 8.5 4.54301Z" stroke="url(#paint0_linear)"/>
<defs>
<linearGradient id="paint0_linear" x1="4.5" y1="0" x2="4.5" y2="13" gradientUnits="userSpaceOnUse">
<stop stop-color="#00C37D"/>
<stop offset="1" stop-color="#138A9A"/>
</linearGradient>
</defs>
</svg>
