<svg id="Capa_1" enable-background="new 0 0 511.979 511.979" height="512" viewBox="0 0 511.979 511.979" width="512" xmlns="http://www.w3.org/2000/svg" xmlns:xlink="http://www.w3.org/1999/xlink"><linearGradient id="SVGID_1_" gradientUnits="userSpaceOnUse" x1="4.395" x2="444.002" y1="507.587" y2="67.981"><stop offset="0" stop-color="#fd3a84"/><stop offset="1" stop-color="#ffa68d"/></linearGradient><linearGradient id="SVGID_2_" gradientUnits="userSpaceOnUse" x1="7.65" x2="480.863" y1="468.415" y2="-4.797"><stop offset="0" stop-color="#ffc2cc"/><stop offset="1" stop-color="#fff2f4"/></linearGradient><g><g><g><path d="m25.607 465.159-21.213 21.214c-5.858 5.858-5.858 15.355 0 21.213s15.356 5.857 21.213 0l21.213-21.213c5.858-5.858 5.858-15.355 0-21.213-5.858-5.859-15.356-5.859-21.213-.001zm433.393-382.18-36-27-30.826.188c-3.207-.343-6.457-.495-9.743-.409-19.923.524-38.238 8.971-51.634 23.856l-29.76 33.494 5.17 23.871-25.367-1.139-139.138 156.598 15.542 42.542 31.756 22.755 30.542 12.542 157.26-139.725-7.135-27.96 29.6 8 33.171-29.472c14.813-13.333 23.261-31.647 23.785-51.57.086-3.287-.066-6.537-.408-9.744z" fill="url(#SVGID_1_)"/></g></g><g><g><path d="m53.445 391.77c-20.785 23.094-32.232 52.925-32.232 83.996 0 8.284 6.716 15 15 15 31.071 0 60.901-11.447 83.924-32.168l99.404-88.321-77.839-77.84zm247.591-278.662c-16.464-12.051-39.749-11.622-55.716 1.891l-116.813 98.842c-6.324 5.351-7.113 14.816-1.762 21.14 5.352 6.325 14.816 7.112 21.14 1.762l116.813-98.843c4.577-3.873 10.953-4.508 16.141-2.06 1.508.712 2.922 1.671 4.155 2.904l91.808 91.808 22.465-19.96-93.06-93.06c-1.628-1.628-3.359-3.098-5.171-4.424zm197.783-99.949c-17.545-17.546-46.094-17.546-63.639 0l-43.007 43.008c16.227 1.736 31.239 8.865 43.007 20.632 11.768 11.768 18.898 26.776 20.633 43.006l43.007-43.006c17.545-17.546 17.545-46.094-.001-63.64z" fill="url(#SVGID_2_)"/></g></g></g></svg>