<svg width="80" height="80" viewBox="0 0 80 80" fill="none" xmlns="http://www.w3.org/2000/svg">
<path d="M78.5 44.4916C78.5 62.7216 62.0914 77.5 40 77.5C17.9086 77.5 2 62.7216 2 44.4916C23 26.337 30.9086 49.4429 53 49.4429C75.0914 49.4429 78.5 26.2615 78.5 44.4916Z" fill="#1DA0BC"/>
<path d="M80 40C80 62.0914 62.0914 80 40 80C17.9086 80 0 62.0914 0 40C0 17.9086 17.9086 0 40 0C62.0914 0 80 17.9086 80 40ZM2.4 40C2.4 60.7659 19.2341 77.6 40 77.6C60.7659 77.6 77.6 60.7659 77.6 40C77.6 19.2341 60.7659 2.4 40 2.4C19.2341 2.4 2.4 19.2341 2.4 40Z" fill="#2F2E2E"/>
<path d="M33.7499 48.75L24.9999 40L22.0833 42.9167L33.7499 54.5834L58.7499 29.5834L55.8333 26.6667L33.7499 48.75Z" fill="#2F2E2E"/>
</svg>
