<svg width="16" height="16" viewBox="0 0 16 16" fill="none" xmlns="http://www.w3.org/2000/svg">
<path fill-rule="evenodd" clip-rule="evenodd" d="M14.6666 5.66675C14.6666 4.92675 14.0733 4.33341 13.3333 4.33341H10.6666V3.00008C10.6666 2.26008 10.0733 1.66675 9.33325 1.66675H6.66659C5.92659 1.66675 5.33325 2.26008 5.33325 3.00008V4.33341H2.66659C1.92659 4.33341 1.33992 4.92675 1.33992 5.66675L1.33325 13.0001C1.33325 13.7401 1.92659 14.3334 2.66659 14.3334H13.3333C14.0733 14.3334 14.6666 13.7401 14.6666 13.0001V5.66675ZM9.33325 4.33342V3.00008H6.66658V4.33342H9.33325ZM2.66659 5.66675V13.0001H13.3333V5.66675H2.66659Z" fill="#808080"/>
</svg>
